<svg width="306" height="324" viewBox="0 0 306 324" fill="none" xmlns="http://www.w3.org/2000/svg">
<g filter="url(#filter0_f_8_8)">
<path d="M152.855 53.1342C127.788 87.1678 123.442 133.614 145.554 171.914C167.666 210.213 210.063 229.672 252.07 224.981C243.138 237.108 231.576 247.659 217.642 255.704C164.604 286.325 97.2955 269.038 67.3042 217.091C37.3128 165.145 55.9957 98.2101 109.034 67.5887C122.967 59.544 137.886 54.8059 152.855 53.1342Z" fill="#FFEE94"/>
</g>
<g filter="url(#filter1_i_8_8)">
<path d="M150.517 67.4758C127.636 98.5428 123.668 140.941 143.853 175.902C164.038 210.863 202.739 228.626 241.085 224.343C232.931 235.413 222.377 245.045 209.657 252.388C161.243 280.34 99.8012 264.56 72.4241 217.141C45.047 169.723 62.1014 108.623 110.516 80.6704C123.235 73.3269 136.854 69.0018 150.517 67.4758Z" fill="url(#paint0_linear_8_8)"/>
</g>
<g filter="url(#filter2_di_8_8)">
<path d="M49.7646 208.382C39.2487 213.052 35.1443 216.998 31.3823 226.765C28.3863 217.3 24.7023 213.079 13 208.382C25.0381 204.46 28.3052 199.92 31.3823 190C35.1636 199.143 37.499 204.132 49.7646 208.382Z" fill="url(#paint1_linear_8_8)"/>
</g>
<g filter="url(#filter3_di_8_8)">
<path d="M67.7646 70.3823C57.2487 75.0521 53.1443 78.9985 49.3823 88.7646C46.3863 79.3001 42.7023 75.0785 31 70.3823C43.0381 66.4602 46.3052 61.9199 49.3823 52C53.1636 61.1426 55.499 66.1323 67.7646 70.3823Z" fill="url(#paint2_linear_8_8)"/>
</g>
<g filter="url(#filter4_di_8_8)">
<path d="M236.765 171.382C226.249 176.052 222.144 179.998 218.382 189.765C215.386 180.3 211.702 176.079 200 171.382C212.038 167.46 215.305 162.92 218.382 153C222.164 162.143 224.499 167.132 236.765 171.382Z" fill="url(#paint3_linear_8_8)"/>
</g>
<defs>
<filter id="filter0_f_8_8" x="-0.00561523" y="0.134186" width="305.076" height="323.713" filterUnits="userSpaceOnUse" color-interpolation-filters="sRGB">
<feFlood flood-opacity="0" result="BackgroundImageFix"/>
<feBlend mode="normal" in="SourceGraphic" in2="BackgroundImageFix" result="shape"/>
<feGaussianBlur stdDeviation="26.5" result="effect1_foregroundBlur_8_8"/>
</filter>
<filter id="filter1_i_8_8" x="59.3618" y="67.4758" width="181.723" height="202.735" filterUnits="userSpaceOnUse" color-interpolation-filters="sRGB">
<feFlood flood-opacity="0" result="BackgroundImageFix"/>
<feBlend mode="normal" in="SourceGraphic" in2="BackgroundImageFix" result="shape"/>
<feColorMatrix in="SourceAlpha" type="matrix" values="0 0 0 0 0 0 0 0 0 0 0 0 0 0 0 0 0 0 127 0" result="hardAlpha"/>
<feOffset dy="4"/>
<feGaussianBlur stdDeviation="4"/>
<feComposite in2="hardAlpha" operator="arithmetic" k2="-1" k3="1"/>
<feColorMatrix type="matrix" values="0 0 0 0 1 0 0 0 0 1 0 0 0 0 1 0 0 0 0.55 0"/>
<feBlend mode="normal" in2="shape" result="effect1_innerShadow_8_8"/>
</filter>
<filter id="filter2_di_8_8" x="4.23255" y="190" width="54.2995" height="56.5321" filterUnits="userSpaceOnUse" color-interpolation-filters="sRGB">
<feFlood flood-opacity="0" result="BackgroundImageFix"/>
<feColorMatrix in="SourceAlpha" type="matrix" values="0 0 0 0 0 0 0 0 0 0 0 0 0 0 0 0 0 0 127 0" result="hardAlpha"/>
<feOffset dy="11"/>
<feGaussianBlur stdDeviation="4.38372"/>
<feColorMatrix type="matrix" values="0 0 0 0 0.285052 0 0 0 0 0.179688 0 0 0 0 0.9375 0 0 0 1 0"/>
<feBlend mode="normal" in2="BackgroundImageFix" result="effect1_dropShadow_8_8"/>
<feBlend mode="normal" in="SourceGraphic" in2="effect1_dropShadow_8_8" result="shape"/>
<feColorMatrix in="SourceAlpha" type="matrix" values="0 0 0 0 0 0 0 0 0 0 0 0 0 0 0 0 0 0 127 0" result="hardAlpha"/>
<feOffset dy="4"/>
<feGaussianBlur stdDeviation="2"/>
<feComposite in2="hardAlpha" operator="arithmetic" k2="-1" k3="1"/>
<feColorMatrix type="matrix" values="0 0 0 0 1 0 0 0 0 1 0 0 0 0 1 0 0 0 0.44 0"/>
<feBlend mode="normal" in2="shape" result="effect2_innerShadow_8_8"/>
</filter>
<filter id="filter3_di_8_8" x="22.2326" y="52" width="54.2995" height="56.5321" filterUnits="userSpaceOnUse" color-interpolation-filters="sRGB">
<feFlood flood-opacity="0" result="BackgroundImageFix"/>
<feColorMatrix in="SourceAlpha" type="matrix" values="0 0 0 0 0 0 0 0 0 0 0 0 0 0 0 0 0 0 127 0" result="hardAlpha"/>
<feOffset dy="11"/>
<feGaussianBlur stdDeviation="4.38372"/>
<feColorMatrix type="matrix" values="0 0 0 0 0.285052 0 0 0 0 0.179688 0 0 0 0 0.9375 0 0 0 0.28 0"/>
<feBlend mode="normal" in2="BackgroundImageFix" result="effect1_dropShadow_8_8"/>
<feBlend mode="normal" in="SourceGraphic" in2="effect1_dropShadow_8_8" result="shape"/>
<feColorMatrix in="SourceAlpha" type="matrix" values="0 0 0 0 0 0 0 0 0 0 0 0 0 0 0 0 0 0 127 0" result="hardAlpha"/>
<feOffset dy="4"/>
<feGaussianBlur stdDeviation="2"/>
<feComposite in2="hardAlpha" operator="arithmetic" k2="-1" k3="1"/>
<feColorMatrix type="matrix" values="0 0 0 0 1 0 0 0 0 1 0 0 0 0 1 0 0 0 0.44 0"/>
<feBlend mode="normal" in2="shape" result="effect2_innerShadow_8_8"/>
</filter>
<filter id="filter4_di_8_8" x="191.233" y="153" width="54.2995" height="56.5321" filterUnits="userSpaceOnUse" color-interpolation-filters="sRGB">
<feFlood flood-opacity="0" result="BackgroundImageFix"/>
<feColorMatrix in="SourceAlpha" type="matrix" values="0 0 0 0 0 0 0 0 0 0 0 0 0 0 0 0 0 0 127 0" result="hardAlpha"/>
<feOffset dy="11"/>
<feGaussianBlur stdDeviation="4.38372"/>
<feColorMatrix type="matrix" values="0 0 0 0 0.285052 0 0 0 0 0.179688 0 0 0 0 0.9375 0 0 0 0.8 0"/>
<feBlend mode="normal" in2="BackgroundImageFix" result="effect1_dropShadow_8_8"/>
<feBlend mode="normal" in="SourceGraphic" in2="effect1_dropShadow_8_8" result="shape"/>
<feColorMatrix in="SourceAlpha" type="matrix" values="0 0 0 0 0 0 0 0 0 0 0 0 0 0 0 0 0 0 127 0" result="hardAlpha"/>
<feOffset dy="4"/>
<feGaussianBlur stdDeviation="2"/>
<feComposite in2="hardAlpha" operator="arithmetic" k2="-1" k3="1"/>
<feColorMatrix type="matrix" values="0 0 0 0 1 0 0 0 0 1 0 0 0 0 1 0 0 0 0.44 0"/>
<feBlend mode="normal" in2="shape" result="effect2_innerShadow_8_8"/>
</filter>
<linearGradient id="paint0_linear_8_8" x1="155.5" y1="51" x2="119.175" y2="270.951" gradientUnits="userSpaceOnUse">
<stop stop-color="#FFEE94"/>
<stop offset="1" stop-color="#FF9900"/>
</linearGradient>
<linearGradient id="paint1_linear_8_8" x1="26.0645" y1="228.487" x2="43.366" y2="196.003" gradientUnits="userSpaceOnUse">
<stop stop-color="#FF9900"/>
<stop offset="1" stop-color="#FFEE94"/>
</linearGradient>
<linearGradient id="paint2_linear_8_8" x1="44.0645" y1="90.4872" x2="61.366" y2="58.0026" gradientUnits="userSpaceOnUse">
<stop stop-color="#FF9900"/>
<stop offset="1" stop-color="#FFEE94"/>
</linearGradient>
<linearGradient id="paint3_linear_8_8" x1="213.064" y1="191.487" x2="230.366" y2="159.003" gradientUnits="userSpaceOnUse">
<stop stop-color="#FF9900"/>
<stop offset="1" stop-color="#FFEE94"/>
</linearGradient>
</defs>
</svg>
