<svg width="289" height="199" viewBox="0 0 289 199" fill="none" xmlns="http://www.w3.org/2000/svg">
<g filter="url(#filter1_i_102_20)">
<path d="M224.674 76.9638C225.323 73.2749 225.661 69.4801 225.661 65.6069C225.661 29.3732 196.056 0 159.537 0C132.388 0 109.061 16.2336 98.8771 39.4512C90.6271 32.3841 79.9218 28.1172 68.2231 28.1172C42.138 28.1172 20.9917 49.3312 20.9917 75.5C20.9917 76.9572 21.0573 78.399 21.1857 79.8227C8.63914 85.9201 -2.38419e-07 98.7142 -2.38419e-07 113.51C-2.38419e-07 134.215 16.917 151 37.7851 151H216.215C237.083 151 254 134.215 254 113.51C254 95.6908 241.47 80.775 224.674 76.9638Z" fill="url(#paint0_linear_102_20)"/>
</g>
<g filter="url(#filter3_i_102_20)">
<path d="M265.1 138.202C265.629 135.173 265.905 132.056 265.905 128.876C265.905 99.121 241.778 75 212.017 75C189.891 75 170.88 88.3309 162.581 107.397C155.858 101.594 147.133 98.0897 137.599 98.0897C116.341 98.0897 99.1074 115.51 99.1074 137C99.1074 138.197 99.1609 139.381 99.2655 140.55C89.0406 145.557 82 156.063 82 168.214C82 185.217 95.7867 199 112.793 199H258.207C275.213 199 289 185.217 289 168.214C289 153.581 278.788 141.332 265.1 138.202Z" fill="url(#paint1_linear_102_20)"/>
</g>
<defs>
<filter id="filter1_i_102_20" x="0" y="0" width="254" height="161" filterUnits="userSpaceOnUse" color-interpolation-filters="sRGB">
<feFlood flood-opacity="0" result="BackgroundImageFix"/>
<feBlend mode="normal" in="SourceGraphic" in2="BackgroundImageFix" result="shape"/>
<feColorMatrix in="SourceAlpha" type="matrix" values="0 0 0 0 0 0 0 0 0 0 0 0 0 0 0 0 0 0 127 0" result="hardAlpha"/>
<feOffset dy="11"/>
<feGaussianBlur stdDeviation="5"/>
<feComposite in2="hardAlpha" operator="arithmetic" k2="-1" k3="1"/>
<feColorMatrix type="matrix" values="0 0 0 0 1 0 0 0 0 1 0 0 0 0 1 0 0 0 1 0"/>
<feBlend mode="normal" in2="shape" result="effect1_innerShadow_102_20"/>
</filter>
<filter id="filter3_i_102_20" x="82" y="75" width="207" height="134" filterUnits="userSpaceOnUse" color-interpolation-filters="sRGB">
<feFlood flood-opacity="0" result="BackgroundImageFix"/>
<feBlend mode="normal" in="SourceGraphic" in2="BackgroundImageFix" result="shape"/>
<feColorMatrix in="SourceAlpha" type="matrix" values="0 0 0 0 0 0 0 0 0 0 0 0 0 0 0 0 0 0 127 0" result="hardAlpha"/>
<feOffset dy="11"/>
<feGaussianBlur stdDeviation="5"/>
<feComposite in2="hardAlpha" operator="arithmetic" k2="-1" k3="1"/>
<feColorMatrix type="matrix" values="0 0 0 0 1 0 0 0 0 1 0 0 0 0 1 0 0 0 1 0"/>
<feBlend mode="normal" in2="shape" result="effect1_innerShadow_102_20"/>
</filter>
<linearGradient id="paint0_linear_102_20" x1="16.1555" y1="137.518" x2="272.662" y2="-54.0265" gradientUnits="userSpaceOnUse">
<stop stop-color="white"/>
<stop offset="1" stop-color="white" stop-opacity="0.58"/>
</linearGradient>
<linearGradient id="paint1_linear_102_20" x1="95.1661" y1="187.929" x2="305.346" y2="32.1689" gradientUnits="userSpaceOnUse">
<stop stop-color="white"/>
<stop offset="1" stop-color="white" stop-opacity="0.58"/>
</linearGradient>
</defs>
</svg>
